NotoSansOgham-Regular.ufo
<glyph name="uni1680" format="2">
  <advance width="445"/>
  <unicode hex="1680"/>
  <outline>
    <contour>
      <point x="0" y="281" type="line"/>
      <point x="479" y="281" type="line"/>
      <point x="479" y="314" type="line"/>
      <point x="0" y="314" type="line"/>
    </contour>
  </outline>
</glyph>
<glyph name="uni1681" format="2">
  <advance width="301"/>
  <unicode hex="1681"/>
  <outline>
    <contour>
      <point x="114" y="-100" type="line"/>
      <point x="187" y="-100" type="line"/>
      <point x="187" y="281" type="line"/>
      <point x="335" y="281" type="line"/>
      <point x="335" y="314" type="line"/>
      <point x="0" y="314" type="line"/>
      <point x="0" y="281" type="line"/>
      <point x="114" y="281" type="line"/>
    </contour>
  </outline>
</glyph>
<glyph name="uni1682" format="2">
  <advance width="445"/>
  <unicode hex="1682"/>
  <outline>
    <contour>
      <point x="114" y="-100" type="line"/>
      <point x="187" y="-100" type="line"/>
      <point x="187" y="281" type="line"/>
      <point x="258" y="281" type="line"/>
      <point x="258" y="-100" type="line"/>
      <point x="331" y="-100" type="line"/>
      <point x="331" y="281" type="line"/>
      <point x="479" y="281" type="line"/>
      <point x="479" y="314" type="line"/>
      <point x="0" y="314" type="line"/>
      <point x="0" y="281" type="line"/>
      <point x="114" y="281" type="line"/>
    </contour>
  </outline>
</glyph>
<glyph name="uni1684" format="2">
  <advance width="733"/>
  <unicode hex="1684"/>
  <outline>
    <contour>
      <point x="114" y="-100" type="line"/>
      <point x="187" y="-100" type="line"/>
      <point x="187" y="281" type="line"/>
      <point x="258" y="281" type="line"/>
      <point x="258" y="-100" type="line"/>
      <point x="331" y="-100" type="line"/>
      <point x="331" y="281" type="line"/>
      <point x="402" y="281" type="line"/>
      <point x="402" y="-100" type="line"/>
      <point x="475" y="-100" type="line"/>
      <point x="475" y="281" type="line"/>
      <point x="546" y="281" type="line"/>
      <point x="546" y="-100" type="line"/>
      <point x="619" y="-100" type="line"/>
      <point x="619" y="281" type="line"/>
      <point x="767" y="281" type="line"/>
      <point x="767" y="314" type="line"/>
      <point x="0" y="314" type="line"/>
      <point x="0" y="281" type="line"/>
      <point x="114" y="281" type="line"/>
    </contour>
  </outline>
</glyph>
<glyph name="uni1685" format="2">
  <advance width="877"/>
  <unicode hex="1685"/>
  <outline>
    <contour>
      <point x="114" y="-100" type="line"/>
      <point x="187" y="-100" type="line"/>
      <point x="187" y="281" type="line"/>
      <point x="258" y="281" type="line"/>
      <point x="258" y="-100" type="line"/>
      <point x="331" y="-100" type="line"/>
      <point x="331" y="281" type="line"/>
      <point x="402" y="281" type="line"/>
      <point x="402" y="-100" type="line"/>
      <point x="475" y="-100" type="line"/>
      <point x="475" y="281" type="line"/>
      <point x="546" y="281" type="line"/>
      <point x="546" y="-100" type="line"/>
      <point x="619" y="-100" type="line"/>
      <point x="619" y="281" type="line"/>
      <point x="690" y="281" type="line"/>
      <point x="690" y="-100" type="line"/>
      <point x="763" y="-100" type="line"/>
      <point x="763" y="281" type="line"/>
      <point x="911" y="281" type="line"/>
      <point x="911" y="314" type="line"/>
      <point x="0" y="314" type="line"/>
      <point x="0" y="281" type="line"/>
      <point x="114" y="281" type="line"/>
    </contour>
  </outline>
</glyph>
<glyph name="uni1686" format="2">
  <advance width="301"/>
  <unicode hex="1686"/>
  <outline>
    <contour>
      <point x="0" y="281" type="line"/>
      <point x="335" y="281" type="line"/>
      <point x="335" y="314" type="line"/>
      <point x="187" y="314" type="line"/>
      <point x="187" y="695" type="line"/>
      <point x="114" y="695" type="line"/>
      <point x="114" y="314" type="line"/>
      <point x="0" y="314" type="line"/>
    </contour>
  </outline>
</glyph>
<glyph name="uni1687" format="2">
  <advance width="445"/>
  <unicode hex="1687"/>
  <outline>
    <contour>
      <point x="0" y="281" type="line"/>
      <point x="479" y="281" type="line"/>
      <point x="479" y="314" type="line"/>
      <point x="331" y="314" type="line"/>
      <point x="331" y="695" type="line"/>
      <point x="258" y="695" type="line"/>
      <point x="258" y="314" type="line"/>
      <point x="187" y="314" type="line"/>
      <point x="187" y="695" type="line"/>
      <point x="114" y="695" type="line"/>
      <point x="114" y="314" type="line"/>
      <point x="0" y="314" type="line"/>
    </contour>
  </outline>
</glyph>
<glyph name="uni1688" format="2">
  <advance width="589"/>
  <unicode hex="1688"/>
  <outline>
    <contour>
      <point x="0" y="281" type="line"/>
      <point x="623" y="281" type="line"/>
      <point x="623" y="314" type="line"/>
      <point x="475" y="314" type="line"/>
      <point x="475" y="695" type="line"/>
      <point x="402" y="695" type="line"/>
      <point x="402" y="314" type="line"/>
      <point x="331" y="314" type="line"/>
      <point x="331" y="695" type="line"/>
      <point x="258" y="695" type="line"/>
      <point x="258" y="314" type="line"/>
      <point x="187" y="314" type="line"/>
      <point x="187" y="695" type="line"/>
      <point x="114" y="695" type="line"/>
      <point x="114" y="314" type="line"/>
      <point x="0" y="314" type="line"/>
    </contour>
  </outline>
</glyph>
<glyph name="uni168A" format="2">
  <advance width="877"/>
  <unicode hex="168A"/>
  <outline>
    <contour>
      <point x="0" y="281" type="line"/>
      <point x="911" y="281" type="line"/>
      <point x="911" y="314" type="line"/>
      <point x="763" y="314" type="line"/>
      <point x="763" y="695" type="line"/>
      <point x="690" y="695" type="line"/>
      <point x="690" y="314" type="line"/>
      <point x="619" y="314" type="line"/>
      <point x="619" y="695" type="line"/>
      <point x="546" y="695" type="line"/>
      <point x="546" y="314" type="line"/>
      <point x="475" y="314" type="line"/>
      <point x="475" y="695" type="line"/>
      <point x="402" y="695" type="line"/>
      <point x="402" y="314" type="line"/>
      <point x="331" y="314" type="line"/>
      <point x="331" y="695" type="line"/>
      <point x="258" y="695" type="line"/>
      <point x="258" y="314" type="line"/>
      <point x="187" y="314" type="line"/>
      <point x="187" y="695" type="line"/>
      <point x="114" y="695" type="line"/>
      <point x="114" y="314" type="line"/>
      <point x="0" y="314" type="line"/>
    </contour>
  </outline>
</glyph>
<glyph name="uni168B" format="2">
  <advance width="301"/>
  <unicode hex="168B"/>
  <outline>
    <contour>
      <point x="15" y="-100" type="line"/>
      <point x="88" y="-100" type="line"/>
      <point x="183" y="281" type="line"/>
      <point x="335" y="281" type="line"/>
      <point x="335" y="314" type="line"/>
      <point x="191" y="314" type="line"/>
      <point x="287" y="695" type="line"/>
      <point x="214" y="695" type="line"/>
      <point x="118" y="314" type="line"/>
      <point x="0" y="314" type="line"/>
      <point x="0" y="281" type="line"/>
      <point x="110" y="281" type="line"/>
    </contour>
  </outline>
</glyph>
<glyph name="uni168C" format="2">
  <advance width="445"/>
  <unicode hex="168C"/>
  <outline>
    <contour>
      <point x="15" y="-100" type="line"/>
      <point x="88" y="-100" type="line"/>
      <point x="183" y="281" type="line"/>
      <point x="254" y="281" type="line"/>
      <point x="159" y="-100" type="line"/>
      <point x="232" y="-100" type="line"/>
      <point x="327" y="281" type="line"/>
      <point x="479" y="281" type="line"/>
      <point x="479" y="314" type="line"/>
      <point x="335" y="314" type="line"/>
      <point x="431" y="695" type="line"/>
      <point x="358" y="695" type="line"/>
      <point x="262" y="314" type="line"/>
      <point x="191" y="314" type="line"/>
      <point x="287" y="695" type="line"/>
      <point x="214" y="695" type="line"/>
      <point x="118" y="314" type="line"/>
      <point x="0" y="314" type="line"/>
      <point x="0" y="281" type="line"/>
      <point x="110" y="281" type="line"/>
    </contour>
  </outline>
</glyph>
<glyph name="uni168E" format="2">
  <advance width="733"/>
  <unicode hex="168E"/>
  <outline>
    <contour>
      <point x="15" y="-100" type="line"/>
      <point x="88" y="-100" type="line"/>
      <point x="183" y="281" type="line"/>
      <point x="254" y="281" type="line"/>
      <point x="159" y="-100" type="line"/>
      <point x="232" y="-100" type="line"/>
      <point x="327" y="281" type="line"/>
      <point x="398" y="281" type="line"/>
      <point x="303" y="-100" type="line"/>
      <point x="376" y="-100" type="line"/>
      <point x="471" y="281" type="line"/>
      <point x="542" y="281" type="line"/>
      <point x="447" y="-100" type="line"/>
      <point x="520" y="-100" type="line"/>
      <point x="615" y="281" type="line"/>
      <point x="767" y="281" type="line"/>
      <point x="767" y="314" type="line"/>
      <point x="623" y="314" type="line"/>
      <point x="719" y="695" type="line"/>
      <point x="646" y="695" type="line"/>
      <point x="550" y="314" type="line"/>
      <point x="479" y="314" type="line"/>
      <point x="575" y="695" type="line"/>
      <point x="502" y="695" type="line"/>
      <point x="406" y="314" type="line"/>
      <point x="335" y="314" type="line"/>
      <point x="431" y="695" type="line"/>
      <point x="358" y="695" type="line"/>
      <point x="262" y="314" type="line"/>
      <point x="191" y="314" type="line"/>
      <point x="287" y="695" type="line"/>
      <point x="214" y="695" type="line"/>
      <point x="118" y="314" type="line"/>
      <point x="0" y="314" type="line"/>
      <point x="0" y="281" type="line"/>
      <point x="110" y="281" type="line"/>
    </contour>
  </outline>
</glyph>
<glyph name="uni1690" format="2">
  <advance width="301"/>
  <unicode hex="1690"/>
  <outline>
    <contour>
      <point x="151" y="210" type="line"/>
      <point x="224" y="281" type="line"/>
      <point x="335" y="281" type="line"/>
      <point x="335" y="314" type="line"/>
      <point x="224" y="314" type="line"/>
      <point x="151" y="386" type="line"/>
      <point x="77" y="314" type="line"/>
      <point x="0" y="314" type="line"/>
      <point x="0" y="281" type="line"/>
      <point x="77" y="281" type="line"/>
    </contour>
  </outline>
</glyph>
<glyph name="uni1691" format="2">
  <advance width="445"/>
  <unicode hex="1691"/>
  <outline>
    <contour>
      <point x="151" y="210" type="line"/>
      <point x="222" y="279" type="line"/>
      <point x="295" y="210" type="line"/>
      <point x="368" y="281" type="line"/>
      <point x="479" y="281" type="line"/>
      <point x="479" y="314" type="line"/>
      <point x="368" y="314" type="line"/>
      <point x="295" y="386" type="line"/>
      <point x="222" y="315" type="line"/>
      <point x="151" y="386" type="line"/>
      <point x="77" y="314" type="line"/>
      <point x="0" y="314" type="line"/>
      <point x="0" y="281" type="line"/>
      <point x="77" y="281" type="line"/>
    </contour>
  </outline>
</glyph>
<glyph name="uni1694" format="2">
  <advance width="877"/>
  <unicode hex="1694"/>
  <outline>
    <contour>
      <point x="151" y="210" type="line"/>
      <point x="222" y="279" type="line"/>
      <point x="295" y="210" type="line"/>
      <point x="366" y="279" type="line"/>
      <point x="439" y="210" type="line"/>
      <point x="510" y="279" type="line"/>
      <point x="583" y="210" type="line"/>
      <point x="654" y="279" type="line"/>
      <point x="727" y="210" type="line"/>
      <point x="800" y="281" type="line"/>
      <point x="911" y="281" type="line"/>
      <point x="911" y="314" type="line"/>
      <point x="800" y="314" type="line"/>
      <point x="727" y="386" type="line"/>
      <point x="654" y="315" type="line"/>
      <point x="583" y="386" type="line"/>
      <point x="510" y="315" type="line"/>
      <point x="439" y="386" type="line"/>
      <point x="366" y="315" type="line"/>
      <point x="295" y="386" type="line"/>
      <point x="222" y="315" type="line"/>
      <point x="151" y="386" type="line"/>
      <point x="77" y="314" type="line"/>
      <point x="0" y="314" type="line"/>
      <point x="0" y="281" type="line"/>
      <point x="77" y="281" type="line"/>
    </contour>
  </outline>
</glyph>
<glyph name="uni1695" format="2">
  <advance width="301"/>
  <unicode hex="1695"/>
  <outline>
    <contour>
      <point x="15" y="-100" type="line"/>
      <point x="88" y="-100" type="line"/>
      <point x="150" y="150" type="line"/>
      <point x="213" y="-100" type="line"/>
      <point x="286" y="-100" type="line"/>
      <point x="190" y="281" type="line"/>
      <point x="335" y="281" type="line"/>
      <point x="335" y="314" type="line"/>
      <point x="191" y="314" type="line"/>
      <point x="287" y="695" type="line"/>
      <point x="214" y="695" type="line"/>
      <point x="150" y="442" type="line"/>
      <point x="87" y="695" type="line"/>
      <point x="14" y="695" type="line"/>
      <point x="109" y="314" type="line"/>
      <point x="0" y="314" type="line"/>
      <point x="0" y="281" type="line"/>
      <point x="110" y="281" type="line"/>
    </contour>
  </outline>
</glyph>
<glyph name="uni1696" format="2">
  <advance width="445"/>
  <unicode hex="1696"/>
  <outline>
    <contour>
      <point x="223" y="-100" type="line"/>
      <point x="431" y="281" type="line"/>
      <point x="479" y="281" type="line"/>
      <point x="479" y="314" type="line"/>
      <point x="431" y="314" type="line"/>
      <point x="223" y="695" type="line"/>
      <point x="14" y="314" type="line"/>
      <point x="0" y="314" type="line"/>
      <point x="0" y="281" type="line"/>
      <point x="14" y="281" type="line"/>
    </contour>
    <contour>
      <point x="223" y="32" type="line"/>
      <point x="87" y="281" type="line"/>
      <point x="359" y="281" type="line"/>
    </contour>
    <contour>
      <point x="87" y="314" type="line"/>
      <point x="223" y="563" type="line"/>
      <point x="359" y="314" type="line"/>
    </contour>
  </outline>
</glyph>
<glyph name="uni1697" format="2">
  <advance width="589"/>
  <unicode hex="1697"/>
  <outline>
    <contour>
      <point x="114" y="-100" type="line"/>
      <point x="475" y="-100" type="line"/>
      <point x="475" y="155" type="line"/>
      <point x="294" y="155" type="line"/>
      <point x="294" y="82" type="line"/>
      <point x="402" y="82" type="line"/>
      <point x="402" y="-27" type="line"/>
      <point x="187" y="-27" type="line"/>
      <point x="187" y="281" type="line"/>
      <point x="623" y="281" type="line"/>
      <point x="623" y="314" type="line"/>
      <point x="0" y="314" type="line"/>
      <point x="0" y="281" type="line"/>
      <point x="114" y="281" type="line"/>
    </contour>
  </outline>
</glyph>
<glyph name="uni1698" format="2">
  <advance width="589"/>
  <unicode hex="1698"/>
  <outline>
    <contour>
      <point x="25" y="-100" type="line"/>
      <point x="100" y="-100" type="line"/>
      <point x="217" y="50" type="line"/>
      <point x="257" y="-1" type="line"/>
      <point x="180" y="-100" type="line"/>
      <point x="255" y="-100" type="line"/>
      <point x="295" y="-49" type="line"/>
      <point x="335" y="-100" type="line"/>
      <point x="410" y="-100" type="line"/>
      <point x="332" y="-1" type="line"/>
      <point x="372" y="50" type="line"/>
      <point x="490" y="-100" type="line"/>
      <point x="565" y="-100" type="line"/>
      <point x="410" y="98" type="line"/>
      <point x="553" y="281" type="line"/>
      <point x="623" y="281" type="line"/>
      <point x="623" y="314" type="line"/>
      <point x="0" y="314" type="line"/>
      <point x="0" y="281" type="line"/>
      <point x="36" y="281" type="line"/>
      <point x="180" y="98" type="line"/>
    </contour>
    <contour>
      <point x="295" y="47" type="line"/>
      <point x="255" y="98" type="line"/>
      <point x="295" y="149" type="line"/>
      <point x="335" y="98" type="line"/>
    </contour>
    <contour>
      <point x="217" y="146" type="line"/>
      <point x="111" y="281" type="line"/>
      <point x="191" y="281" type="line"/>
      <point x="257" y="197" type="line"/>
    </contour>
    <contour>
      <point x="295" y="244" type="line"/>
      <point x="266" y="281" type="line"/>
      <point x="323" y="281" type="line"/>
    </contour>
    <contour>
      <point x="372" y="145" type="line"/>
      <point x="332" y="196" type="line"/>
      <point x="398" y="281" type="line"/>
      <point x="478" y="281" type="line"/>
    </contour>
  </outline>
</glyph>
<glyph name="uni1699" format="2">
  <advance width="733"/>
  <unicode hex="1699"/>
  <outline>
    <contour>
      <point x="0" y="281" type="line"/>
      <point x="767" y="281" type="line"/>
      <point x="767" y="314" type="line"/>
      <point x="619" y="314" type="line"/>
      <point x="619" y="385" type="line"/>
      <point x="690" y="385" type="line"/>
      <point x="690" y="458" type="line"/>
      <point x="619" y="458" type="line"/>
      <point x="619" y="529" type="line"/>
      <point x="690" y="529" type="line"/>
      <point x="690" y="602" type="line"/>
      <point x="619" y="602" type="line"/>
      <point x="619" y="673" type="line"/>
      <point x="690" y="673" type="line"/>
      <point x="690" y="746" type="line"/>
      <point x="619" y="746" type="line"/>
      <point x="619" y="817" type="line"/>
      <point x="690" y="817" type="line"/>
      <point x="690" y="890" type="line"/>
      <point x="619" y="890" type="line"/>
      <point x="619" y="961" type="line"/>
      <point x="546" y="961" type="line"/>
      <point x="546" y="890" type="line"/>
      <point x="475" y="890" type="line"/>
      <point x="475" y="961" type="line"/>
      <point x="402" y="961" type="line"/>
      <point x="402" y="890" type="line"/>
      <point x="331" y="890" type="line"/>
      <point x="331" y="961" type="line"/>
      <point x="258" y="961" type="line"/>
      <point x="258" y="890" type="line"/>
      <point x="187" y="890" type="line"/>
      <point x="187" y="961" type="line"/>
      <point x="114" y="961" type="line"/>
      <point x="114" y="890" type="line"/>
      <point x="43" y="890" type="line"/>
      <point x="43" y="817" type="line"/>
      <point x="114" y="817" type="line"/>
      <point x="114" y="746" type="line"/>
      <point x="43" y="746" type="line"/>
      <point x="43" y="673" type="line"/>
      <point x="114" y="673" type="line"/>
      <point x="114" y="602" type="line"/>
      <point x="43" y="602" type="line"/>
      <point x="43" y="529" type="line"/>
      <point x="114" y="529" type="line"/>
      <point x="114" y="458" type="line"/>
      <point x="43" y="458" type="line"/>
      <point x="43" y="385" type="line"/>
      <point x="114" y="385" type="line"/>
      <point x="114" y="314" type="line"/>
      <point x="0" y="314" type="line"/>
    </contour>
    <contour>
      <point x="187" y="314" type="line"/>
      <point x="187" y="385" type="line"/>
      <point x="258" y="385" type="line"/>
      <point x="258" y="314" type="line"/>
    </contour>
    <contour>
      <point x="187" y="458" type="line"/>
      <point x="187" y="529" type="line"/>
      <point x="258" y="529" type="line"/>
      <point x="258" y="458" type="line"/>
    </contour>
    <contour>
      <point x="331" y="314" type="line"/>
      <point x="331" y="385" type="line"/>
      <point x="402" y="385" type="line"/>
      <point x="402" y="314" type="line"/>
    </contour>
    <contour>
      <point x="475" y="314" type="line"/>
      <point x="475" y="385" type="line"/>
      <point x="546" y="385" type="line"/>
      <point x="546" y="314" type="line"/>
    </contour>
    <contour>
      <point x="331" y="458" type="line"/>
      <point x="331" y="529" type="line"/>
      <point x="402" y="529" type="line"/>
      <point x="402" y="458" type="line"/>
    </contour>
    <contour>
      <point x="187" y="602" type="line"/>
      <point x="187" y="673" type="line"/>
      <point x="258" y="673" type="line"/>
      <point x="258" y="602" type="line"/>
    </contour>
    <contour>
      <point x="187" y="746" type="line"/>
      <point x="187" y="817" type="line"/>
      <point x="258" y="817" type="line"/>
      <point x="258" y="746" type="line"/>
    </contour>
    <contour>
      <point x="475" y="458" type="line"/>
      <point x="475" y="529" type="line"/>
      <point x="546" y="529" type="line"/>
      <point x="546" y="458" type="line"/>
    </contour>
    <contour>
      <point x="331" y="602" type="line"/>
      <point x="331" y="673" type="line"/>
      <point x="402" y="673" type="line"/>
      <point x="402" y="602" type="line"/>
    </contour>
    <contour>
      <point x="331" y="746" type="line"/>
      <point x="331" y="817" type="line"/>
      <point x="402" y="817" type="line"/>
      <point x="402" y="746" type="line"/>
    </contour>
    <contour>
      <point x="475" y="602" type="line"/>
      <point x="475" y="673" type="line"/>
      <point x="546" y="673" type="line"/>
      <point x="546" y="602" type="line"/>
    </contour>
    <contour>
      <point x="475" y="746" type="line"/>
      <point x="475" y="817" type="line"/>
      <point x="546" y="817" type="line"/>
      <point x="546" y="746" type="line"/>
    </contour>
  </outline>
</glyph>
<glyph name="uni169A" format="2">
  <advance width="589"/>
  <unicode hex="169A"/>
  <outline>
    <contour>
      <point x="94" y="173" type="line"/>
      <point x="495" y="173" type="line"/>
      <point x="495" y="246" type="line"/>
      <point x="94" y="246" type="line"/>
    </contour>
    <contour>
      <point x="0" y="281" type="line"/>
      <point x="623" y="281" type="line"/>
      <point x="623" y="314" type="line"/>
      <point x="0" y="314" type="line"/>
    </contour>
  </outline>
</glyph>
<glyph name="uni169B" format="2">
  <advance width="455"/>
  <unicode hex="169B"/>
  <outline>
    <contour>
      <point x="0" y="-100" type="line"/>
      <point x="73" y="-100" type="line"/>
      <point x="294" y="281" type="line"/>
      <point x="489" y="281" type="line"/>
      <point x="489" y="314" type="line"/>
      <point x="294" y="314" type="line"/>
      <point x="73" y="695" type="line"/>
      <point x="0" y="695" type="line"/>
      <point x="230" y="298" type="line"/>
    </contour>
  </outline>
</glyph>
<glyph name="uni169C" format="2">
  <advance width="455"/>
  <unicode hex="169C"/>
  <outline>
    <contour>
      <point x="382" y="-100" type="line"/>
      <point x="455" y="-100" type="line"/>
      <point x="225" y="298" type="line"/>
      <point x="455" y="695" type="line"/>
      <point x="382" y="695" type="line"/>
      <point x="161" y="314" type="line"/>
      <point x="0" y="314" type="line"/>
      <point x="0" y="281" type="line"/>
      <point x="161" y="281" type="line"/>
    </contour>
  </outline>
</glyph>
